<svg width="32" height="32" viewBox="0 0 32 32" fill="none" xmlns="http://www.w3.org/2000/svg">
<path d="M26.9496 22.709C27.2222 22.9826 27.4265 23.3165 27.5461 23.6837C27.6657 24.0509 27.6971 24.4411 27.6377 24.8227C27.5784 25.2043 27.4301 25.5666 27.2047 25.8802C26.9794 26.1938 26.6833 26.4499 26.3406 26.6278C24.3818 27.6747 22.0997 27.9423 19.9519 27.3769C14.2516 25.9419 6.05808 17.7483 4.62308 12.048C4.05762 9.90024 4.32518 7.61809 5.37208 5.65935C5.54999 5.31659 5.80612 5.02054 6.11974 4.79518C6.43335 4.56982 6.79563 4.42148 7.17723 4.36218C7.55884 4.30287 7.94905 4.33427 8.31626 4.45383C8.68347 4.57339 9.01737 4.77774 9.29091 5.05035L11.7234 7.48168C12.0742 7.82895 12.3116 8.27433 12.4042 8.75916C12.4969 9.24399 12.4406 9.74552 12.2426 10.1977C12.0259 10.705 11.7183 11.1684 11.3349 11.565C8.55358 14.3463 17.6547 23.4475 20.4349 20.665C20.8316 20.2802 21.2954 19.9714 21.8034 19.7538C22.2555 19.5555 22.7571 19.499 23.242 19.5917C23.7269 19.6844 24.1723 19.9219 24.5194 20.273L26.9496 22.709Z" fill="black"/>
</svg>
