<svg fill="#972B2B" height="200px" width="200px" version="1.1" id="Layer_1" xmlns="http://www.w3.org/2000/svg" xmlns:xlink="http://www.w3.org/1999/xlink" viewBox="0 0 512 512" xml:space="preserve"><g id="SVGRepo_bgCarrier" stroke-width="0"></g><g id="SVGRepo_tracerCarrier" stroke-linecap="round" stroke-linejoin="round"></g><g id="SVGRepo_iconCarrier"> <g> <g> <path d="M504.05,195.048H400.166c-4.392,0-7.95,3.56-7.95,7.95s3.559,7.95,7.95,7.95h13.25v58.302H263.95v-58.302h93.814 c4.392,0,7.95-3.56,7.95-7.95s-3.559-7.95-7.95-7.95H256c-4.391,0-7.95,3.56-7.95,7.95v66.253h-74.733 c-4.391,0-7.95,3.56-7.95,7.95v66.253H90.634c-4.391,0-7.95,3.56-7.95,7.95v68.373H7.95c-4.391,0-7.95,3.56-7.95,7.95v74.203 c0,4.391,3.56,7.95,7.95,7.95h78.443c4.391,0,7.95-3.56,7.95-7.95s-3.56-7.95-7.95-7.95H15.901v-58.302h149.466v58.302h-36.571 c-4.391,0-7.95,3.56-7.95,7.95s3.56,7.95,7.95,7.95H504.05c4.392,0,7.95-3.56,7.95-7.95V202.998 C512,198.607,508.441,195.048,504.05,195.048z M181.267,285.151h149.466v58.302H181.267V285.151z M413.416,359.354v58.302H263.95 v-58.302H413.416z M98.584,417.656v-58.302H248.05v58.302H98.584z M330.733,493.979H181.267v-58.302h149.466V493.979z M496.099,493.979H346.634v-58.302h149.466V493.979z M496.099,417.656h-66.783v-58.302h66.783V417.656z M496.099,343.453H346.634 v-58.302h149.466V343.453z M496.099,269.251h-66.783v-58.302h66.783V269.251z"></path> </g> </g> <g> <g> <path d="M472.248,2.12H359.884c-0.76,0-1.515,0.109-2.243,0.323L249.517,34.245c-2.526,0.743-4.458,2.663-5.277,5.054 c-0.229,0.314-31.395,59.546-31.395,59.546c-13.112-8.862-28.906-14.041-45.888-14.041c-42.816,0-156.36,72.376-161.173,75.458 c-4.799,3.072-4.799,10.318,0,13.39c4.813,3.082,118.357,75.458,161.173,75.458c45.299,0,82.153-36.854,82.153-82.153 c0-22.48-9.083-42.873-23.763-57.721l30.421-57.897l101.873,29.963c0.728,0.213,1.483,0.322,2.243,0.322h112.364 c21.92,0,39.752-17.832,39.752-39.752S494.168,2.12,472.248,2.12z M233.209,166.957c0,36.531-29.721,66.253-66.253,66.253 c-28.641,0-104.234-42.993-141.93-66.253c37.696-23.259,113.289-66.253,141.93-66.253c14.32,0,27.582,4.582,38.43,12.336 l-24.153,45.967h-63.039c-4.391,0-7.95,3.56-7.95,7.95s3.56,7.95,7.95,7.95h67.843c2.954,0,5.664-1.638,7.038-4.253l24.418-46.472 C227.286,135.733,233.209,150.663,233.209,166.957z M351.934,63.047l-71.998-21.175l71.998-21.176V63.047z M472.248,65.723 H367.808c0.012-0.176,0.026-0.351,0.026-0.53V18.021h104.414c13.151,0,23.851,10.699,23.851,23.851S485.399,65.723,472.248,65.723 z"></path> </g> </g> <g> <g> <path d="M86.393,159.006H71.553c-4.391,0-7.95,3.56-7.95,7.95s3.56,7.95,7.95,7.95h14.841c4.391,0,7.95-3.56,7.95-7.95 S90.784,159.006,86.393,159.006z"></path> </g> </g> </g></svg>