<svg width="50" height="50" viewBox="0 0 50 50" fill="none" xmlns="http://www.w3.org/2000/svg">
<g clip-path="url(#clip0_241_1205)">
<path fill-rule="evenodd" clip-rule="evenodd" d="M18.0416 9.4082C16.7399 11.2005 16.456 13.199 16.8033 14.2589C16.9825 14.8056 16.6846 15.394 16.1378 15.5732C15.5911 15.7524 15.0027 15.4543 14.8236 14.9077C14.21 13.035 14.7856 10.346 16.3559 8.18394C17.9752 5.95438 20.7224 4.16663 24.6212 4.16663C28.5829 4.16663 31.5362 5.79374 33.3461 7.95125C35.1177 10.063 35.8466 12.7705 35.1653 14.9006C34.9901 15.4486 34.4037 15.7507 33.8558 15.5755C33.3079 15.4002 33.0057 14.8139 33.181 14.266C33.5872 12.9959 33.1976 11.0158 31.75 9.29018C30.3408 7.61024 27.9745 6.24996 24.6212 6.24996C21.4315 6.24996 19.2943 7.68341 18.0416 9.4082Z" fill="#972B2B"/>
<path fill-rule="evenodd" clip-rule="evenodd" d="M19.7917 6.25C20.367 6.25 20.8333 6.71637 20.8333 7.29167V11.4583C20.8333 12.0336 20.367 12.5 19.7917 12.5C19.2164 12.5 18.75 12.0336 18.75 11.4583V7.29167C18.75 6.71637 19.2164 6.25 19.7917 6.25Z" fill="#972B2B"/>
<path fill-rule="evenodd" clip-rule="evenodd" d="M25 4.16663C25.5753 4.16663 26.0417 4.633 26.0417 5.20829V9.37496C26.0417 9.95025 25.5753 10.4166 25 10.4166C24.4247 10.4166 23.9583 9.95025 23.9583 9.37496V5.20829C23.9583 4.633 24.4247 4.16663 25 4.16663Z" fill="#972B2B"/>
<path fill-rule="evenodd" clip-rule="evenodd" d="M18.8806 30.8626C18.6428 30.3753 18.1056 30.112 17.5819 30.2407C11.9526 31.6241 6.25 34.4448 6.25 38.6881V43.7499V45.8332H8.33333H41.6667H43.75V43.7499V38.6881C43.75 34.4448 38.0474 31.6241 32.4181 30.2407C31.8944 30.112 31.3572 30.3753 31.1194 30.8626H26.8859C25.9602 30.8628 25.4889 30.8628 25.0258 30.8628C24.5455 30.8627 24.0742 30.8627 23.1139 30.8629L18.8806 30.8626ZM26.8864 32.946C26.8861 32.946 26.8865 32.946 26.8864 32.946C25.9548 32.9462 25.4854 32.9462 25.025 32.9462C24.5477 32.9461 24.0794 32.9461 23.1144 32.9463L18.8804 32.946L17.579 32.9458L17.3392 32.4545C14.9201 33.1071 12.6383 34.0155 10.9544 35.1295C9.05481 36.3861 8.33333 37.6036 8.33333 38.6881V43.7499H41.6667V38.6881C41.6667 37.6036 40.9452 36.3861 39.0456 35.1295C37.3617 34.0155 35.0799 33.1071 32.6608 32.4545L32.421 32.946H31.1194H26.8864Z" fill="#972B2B"/>
<path d="M16.6667 36.4583C16.6667 35.883 17.133 35.4166 17.7083 35.4166C18.2837 35.4166 18.75 35.883 18.75 36.4583V43.75C18.75 44.3253 18.2837 44.7916 17.7083 44.7916C17.133 44.7916 16.6667 44.3253 16.6667 43.75V36.4583Z" fill="#972B2B"/>
<path d="M31.25 36.4583C31.25 35.883 31.7164 35.4166 32.2917 35.4166C32.867 35.4166 33.3333 35.883 33.3333 36.4583V43.75C33.3333 44.3253 32.867 44.7916 32.2917 44.7916C31.7164 44.7916 31.25 44.3253 31.25 43.75V36.4583Z" fill="#972B2B"/>
<path fill-rule="evenodd" clip-rule="evenodd" d="M30.2083 6.25C30.7837 6.25 31.25 6.71637 31.25 7.29167V11.4583C31.25 12.0336 30.7837 12.5 30.2083 12.5C29.633 12.5 29.1667 12.0336 29.1667 11.4583V7.29167C29.1667 6.71637 29.633 6.25 30.2083 6.25Z" fill="#972B2B"/>
<path fill-rule="evenodd" clip-rule="evenodd" d="M13.0921 16.421C12.9075 15.1087 13.6819 13.875 14.933 12.7631L16.3171 14.3201C15.2244 15.2914 15.1199 15.8808 15.1551 16.1309C15.192 16.3931 15.4548 16.8255 16.3897 17.3004C18.2173 18.2287 21.5318 18.7499 25 18.7499C28.4682 18.7499 31.7827 18.2287 33.6103 17.3004C34.5453 16.8255 34.8081 16.3931 34.845 16.1309C34.8801 15.8808 34.7756 15.2914 33.683 14.3201L35.0671 12.7631C36.3181 13.875 37.0926 15.1087 36.908 16.421C36.7251 17.7214 35.6696 18.5911 34.5537 19.1579C32.2798 20.3129 28.563 20.8333 25 20.8333C21.437 20.8333 17.7202 20.3129 15.4462 19.1579C14.3304 18.5911 13.2749 17.7214 13.0921 16.421Z" fill="#972B2B"/>
<path fill-rule="evenodd" clip-rule="evenodd" d="M17.7083 18.75C17.7083 22.7771 20.9729 26.0417 25 26.0417C29.0271 26.0417 32.2917 22.7771 32.2917 18.75H34.375C34.375 23.9277 30.1777 28.125 25 28.125C19.8223 28.125 15.625 23.9277 15.625 18.75H17.7083Z" fill="#972B2B"/>
</g>
<defs>
<clipPath id="clip0_241_1205">
<rect width="50" height="50" fill="white"/>
</clipPath>
</defs>
</svg>
