<svg width="50" height="50" viewBox="0 0 50 50" fill="none" xmlns="http://www.w3.org/2000/svg">
<path d="M19.7917 25.8333L22.7679 29.1666L30.2084 20.8333" stroke="#972B2B" stroke-width="1.5" stroke-linecap="round" stroke-linejoin="round"/>
<path d="M6.25 21.7014C6.25 15.0397 6.25 11.7089 7.0365 10.5883C7.82298 9.46775 10.9548 8.39571 17.2186 6.25161L18.4119 5.84313C21.6771 4.72546 23.3096 4.16663 25 4.16663C26.6904 4.16663 28.3229 4.72546 31.5881 5.84313L32.7815 6.25161C39.0452 8.39571 42.1771 9.46775 42.9635 10.5883C43.75 11.7089 43.75 15.0397 43.75 21.7014C43.75 22.7075 43.75 23.7987 43.75 24.982C43.75 30.2006 42.0067 34.2258 39.5833 37.3002M6.65175 29.1666C8.43804 38.1216 15.7842 42.7352 20.622 44.8485C22.125 45.505 22.8765 45.8333 25 45.8333C27.1235 45.8333 27.875 45.505 29.3779 44.8485C30.5825 44.3223 31.9425 43.6412 33.3333 42.7766" stroke="#972B2B" stroke-width="1.5" stroke-linecap="round"/>
</svg>