<svg width="852" height="662" viewBox="0 0 852 662" fill="none" xmlns="http://www.w3.org/2000/svg">
<path d="M24 431H102.75V515H114V555.5H88.5L87 536H28.5L27 555.5H1.5V515H11.25C14.15 511.7 16.3 508 17.7 503.9C19.2 499.7 20.05 495.9 20.25 492.5L24 431ZM75.75 515V452H48L45.75 489.5C45.45 495.6 43.95 501.75 41.25 507.95C40.15 510.55 38.9 512.9 37.5 515H75.75ZM216.041 513.5C216.041 521 213.891 526.9 209.591 531.2C205.391 535.4 199.541 537.5 192.041 537.5H157.541C150.041 537.5 144.141 535.4 139.841 531.2C135.641 526.9 133.541 521 133.541 513.5V479C133.541 471.5 135.641 465.65 139.841 461.45C144.141 457.15 150.041 455 157.541 455H192.041C199.541 455 205.391 457.15 209.591 461.45C213.891 465.65 216.041 471.5 216.041 479V513.5ZM189.791 481.25C189.791 477.25 187.791 475.25 183.791 475.25H165.791C161.791 475.25 159.791 477.25 159.791 481.25V511.25C159.791 515.25 161.791 517.25 165.791 517.25H183.791C187.791 517.25 189.791 515.25 189.791 511.25V481.25ZM300.773 522.5H281.273L266.273 495.5V536H240.023V456.5H267.773L291.023 498.5L314.273 456.5H342.023V536H315.773V495.5L300.773 522.5ZM450.064 534.5C427.764 536.5 409.264 537.5 394.564 537.5C384.764 537.5 377.564 535.2 372.964 530.6C368.364 526 366.064 518.8 366.064 509V461C366.064 450.5 368.414 442.9 373.114 438.2C377.914 433.4 385.564 431 396.064 431H450.064V452H402.064C396.064 452 393.064 455 393.064 461V509C393.064 511.3 393.714 513.15 395.014 514.55C396.414 515.85 398.164 516.5 400.264 516.5C402.364 516.5 404.664 516.5 407.164 516.5C409.664 516.4 412.264 516.3 414.964 516.2C417.664 516.1 420.364 516 423.064 515.9C425.864 515.8 429.414 515.6 433.714 515.3C438.114 515 443.564 514.65 450.064 514.25V534.5ZM510.076 476.75V536H483.826V476.75H459.076V456.5H534.826V476.75H510.076ZM598.635 476.75C593.335 476.75 587.335 477.75 580.635 479.75V515.75H603.135C607.135 515.75 609.135 513.75 609.135 509.75V482C609.135 480.5 608.635 479.25 607.635 478.25C606.635 477.25 605.385 476.75 603.885 476.75H598.635ZM580.635 536V561.5H554.385V456.5H577.635L579.135 464C583.835 460.9 588.635 458.65 593.535 457.25C598.535 455.75 602.735 455 606.135 455H612.885C619.685 455 625.135 457.05 629.235 461.15C633.335 465.25 635.385 470.7 635.385 477.5V512C635.385 519.5 633.235 525.4 628.935 529.7C624.735 533.9 618.885 536 611.385 536H580.635ZM740.367 513.5C740.367 521 738.217 526.9 733.917 531.2C729.717 535.4 723.867 537.5 716.367 537.5H681.867C674.367 537.5 668.467 535.4 664.167 531.2C659.967 526.9 657.867 521 657.867 513.5V479C657.867 471.5 659.967 465.65 664.167 461.45C668.467 457.15 674.367 455 681.867 455H716.367C723.867 455 729.717 457.15 733.917 461.45C738.217 465.65 740.367 471.5 740.367 479V513.5ZM714.117 481.25C714.117 477.25 712.117 475.25 708.117 475.25H690.117C686.117 475.25 684.117 477.25 684.117 481.25V511.25C684.117 515.25 686.117 517.25 690.117 517.25H708.117C712.117 517.25 714.117 515.25 714.117 511.25V481.25ZM795.85 449C782.85 449 776.35 442.5 776.35 429.5V425H795.85V428.75C795.85 430.25 796.35 431.5 797.35 432.5C798.35 433.5 799.6 434 801.1 434H805.6C807.1 434 808.35 433.5 809.35 432.5C810.35 431.5 810.85 430.25 810.85 428.75V425H830.35V429.5C830.35 442.5 823.85 449 810.85 449H795.85ZM816.1 456.5H843.85V536H817.6V492.5L792.1 536H764.35V456.5H790.6V500L816.1 456.5Z" fill="black"/>
<path d="M26.6321 609.88C24.5041 609.88 22.5814 610.253 20.8641 611C19.1467 611.709 17.6907 612.773 16.4961 614.192C15.3014 615.573 14.3867 617.272 13.7521 619.288C13.1174 621.267 12.8001 623.507 12.8001 626.008C12.8001 629.293 13.3041 632.149 14.3121 634.576C15.3574 637.003 16.8881 638.869 18.9041 640.176C20.9574 641.483 23.5147 642.136 26.5761 642.136C28.3307 642.136 29.9921 641.987 31.5601 641.688C33.1281 641.389 34.6587 641.016 36.1521 640.568V644.936C34.6587 645.496 33.1094 645.907 31.5041 646.168C29.9361 646.429 28.0507 646.56 25.8481 646.56C21.7787 646.56 18.3814 645.72 15.6561 644.04C12.9307 642.36 10.8774 639.971 9.49606 636.872C8.15206 633.773 7.48006 630.133 7.48006 625.952C7.48006 622.928 7.89072 620.165 8.71206 617.664C9.57072 615.163 10.8027 612.997 12.4081 611.168C14.0507 609.339 16.0667 607.939 18.4561 606.968C20.8454 605.96 23.5894 605.456 26.6881 605.456C28.7414 605.456 30.7201 605.661 32.6241 606.072C34.5281 606.483 36.2267 607.061 37.7201 607.808L35.7041 612.064C34.4721 611.504 33.0907 611 31.5601 610.552C30.0667 610.104 28.4241 609.88 26.6321 609.88ZM60.8949 646H55.8549V610.44H43.3669V606.016H73.3269V610.44H60.8949V646ZM93.3001 606.016C98.5267 606.016 102.335 607.043 104.724 609.096C107.113 611.149 108.308 614.043 108.308 617.776C108.308 619.419 108.028 621.005 107.468 622.536C106.945 624.029 106.068 625.373 104.836 626.568C103.604 627.763 101.961 628.715 99.9081 629.424C97.8547 630.096 95.3347 630.432 92.3481 630.432H87.7561V646H82.7161V606.016H93.3001ZM92.8521 610.328H87.7561V626.12H91.7881C94.3267 626.12 96.4361 625.859 98.1161 625.336C99.7961 624.776 101.047 623.899 101.868 622.704C102.689 621.509 103.1 619.941 103.1 618C103.1 615.424 102.279 613.501 100.636 612.232C98.9934 610.963 96.3987 610.328 92.8521 610.328ZM154.87 625.952C154.87 629.051 154.478 631.869 153.694 634.408C152.91 636.909 151.734 639.075 150.166 640.904C148.636 642.733 146.713 644.133 144.398 645.104C142.121 646.075 139.47 646.56 136.446 646.56C133.31 646.56 130.585 646.075 128.27 645.104C125.956 644.096 124.033 642.696 122.502 640.904C120.972 639.075 119.833 636.891 119.086 634.352C118.34 631.813 117.966 628.995 117.966 625.896C117.966 621.789 118.638 618.205 119.982 615.144C121.326 612.083 123.361 609.693 126.086 607.976C128.849 606.259 132.321 605.4 136.502 605.4C140.497 605.4 143.857 606.259 146.582 607.976C149.308 609.656 151.361 612.045 152.742 615.144C154.161 618.205 154.87 621.808 154.87 625.952ZM123.286 625.952C123.286 629.312 123.753 632.205 124.686 634.632C125.62 637.059 127.057 638.925 128.998 640.232C130.977 641.539 133.46 642.192 136.446 642.192C139.47 642.192 141.934 641.539 143.838 640.232C145.78 638.925 147.217 637.059 148.15 634.632C149.084 632.205 149.55 629.312 149.55 625.952C149.55 620.912 148.505 616.973 146.414 614.136C144.324 611.261 141.02 609.824 136.502 609.824C133.478 609.824 130.977 610.477 128.998 611.784C127.057 613.053 125.62 614.901 124.686 617.328C123.753 619.717 123.286 622.592 123.286 625.952ZM167.148 606.016H171.852V627.968C171.852 628.901 171.834 629.928 171.796 631.048C171.796 632.131 171.778 633.213 171.74 634.296C171.703 635.379 171.647 636.349 171.572 637.208C171.535 638.029 171.498 638.664 171.46 639.112H171.684L193.692 606.016H199.292V646H194.588V624.272C194.588 623.264 194.607 622.181 194.644 621.024C194.682 619.829 194.719 618.691 194.756 617.608C194.831 616.488 194.887 615.499 194.924 614.64C194.962 613.781 194.999 613.147 195.036 612.736H194.812L172.748 646H167.148V606.016ZM226.093 646H221.053V610.44H208.565V606.016H238.525V610.44H226.093V646ZM270.258 646H247.914V606.016H270.258V610.44H252.954V622.928H269.25V627.296H252.954V641.576H270.258V646ZM311.175 646H306.135V610.44H293.479C293.218 612.493 292.938 614.659 292.639 616.936C292.34 619.176 292.023 621.397 291.687 623.6C291.388 625.803 291.09 627.875 290.791 629.816C290.492 631.757 290.194 633.456 289.895 634.912C289.41 637.413 288.812 639.541 288.103 641.296C287.394 643.051 286.442 644.376 285.247 645.272C284.09 646.168 282.559 646.616 280.655 646.616C280.02 646.616 279.367 646.541 278.695 646.392C278.06 646.28 277.5 646.131 277.015 645.944V641.744C277.426 641.931 277.892 642.099 278.415 642.248C278.938 642.36 279.498 642.416 280.095 642.416C281.215 642.416 282.092 641.968 282.727 641.072C283.399 640.139 283.922 639 284.295 637.656C284.668 636.275 284.986 634.912 285.247 633.568C285.471 632.485 285.732 631.048 286.031 629.256C286.33 627.427 286.647 625.299 286.983 622.872C287.356 620.445 287.73 617.813 288.103 614.976C288.514 612.101 288.906 609.115 289.279 606.016H311.175V646ZM325.399 646V606.016H330.439V622.928H337.943C341.677 622.928 344.645 623.432 346.847 624.44C349.05 625.448 350.637 626.811 351.607 628.528C352.578 630.245 353.063 632.168 353.063 634.296C353.063 636.648 352.522 638.701 351.44 640.456C350.394 642.211 348.808 643.573 346.68 644.544C344.551 645.515 341.845 646 338.559 646H325.399ZM338.055 641.688C341.304 641.688 343.749 641.091 345.392 639.896C347.034 638.664 347.856 636.797 347.856 634.296C347.856 632.579 347.445 631.216 346.623 630.208C345.839 629.163 344.663 628.416 343.095 627.968C341.565 627.52 339.642 627.296 337.327 627.296H330.439V641.688H338.055ZM395.265 646H390.225V627.352H369.729V646H364.689V606.016H369.729V622.928H390.225V606.016H395.265V646ZM434.645 646L429.829 633.624H413.981L409.221 646H404.125L419.749 605.848H424.285L439.853 646H434.645ZM423.837 617.048C423.725 616.749 423.538 616.208 423.277 615.424C423.016 614.64 422.754 613.837 422.493 613.016C422.269 612.157 422.082 611.504 421.933 611.056C421.746 611.803 421.541 612.568 421.317 613.352C421.13 614.099 420.925 614.789 420.701 615.424C420.514 616.059 420.346 616.6 420.197 617.048L415.661 629.144H428.317L423.837 617.048ZM460.723 629.424L450.363 646H444.483L455.683 628.528C454.264 628.043 452.92 627.371 451.651 626.512C450.419 625.653 449.411 624.477 448.627 622.984C447.843 621.491 447.451 619.568 447.451 617.216C447.451 613.595 448.701 610.832 451.203 608.928C453.704 606.987 457.437 606.016 462.403 606.016H473.603V646H468.563V629.424H460.723ZM462.515 610.328C460.387 610.328 458.595 610.571 457.139 611.056C455.683 611.541 454.563 612.307 453.779 613.352C453.032 614.397 452.659 615.76 452.659 617.44C452.659 619.904 453.48 621.808 455.123 623.152C456.765 624.496 459.304 625.168 462.739 625.168H468.563V610.328H462.515ZM533.961 646H527.913L509.825 625.728V646H504.785V606.016H509.825V625.392L527.465 606.016H533.177L515.817 625.448L533.961 646ZM576.557 625.952C576.557 629.051 576.165 631.869 575.381 634.408C574.597 636.909 573.421 639.075 571.853 640.904C570.322 642.733 568.399 644.133 566.085 645.104C563.807 646.075 561.157 646.56 558.133 646.56C554.997 646.56 552.271 646.075 549.957 645.104C547.642 644.096 545.719 642.696 544.189 640.904C542.658 639.075 541.519 636.891 540.773 634.352C540.026 631.813 539.653 628.995 539.653 625.896C539.653 621.789 540.325 618.205 541.669 615.144C543.013 612.083 545.047 609.693 547.773 607.976C550.535 606.259 554.007 605.4 558.189 605.4C562.183 605.4 565.543 606.259 568.269 607.976C570.994 609.656 573.047 612.045 574.429 615.144C575.847 618.205 576.557 621.808 576.557 625.952ZM544.973 625.952C544.973 629.312 545.439 632.205 546.373 634.632C547.306 637.059 548.743 638.925 550.685 640.232C552.663 641.539 555.146 642.192 558.133 642.192C561.157 642.192 563.621 641.539 565.525 640.232C567.466 638.925 568.903 637.059 569.837 634.632C570.77 632.205 571.237 629.312 571.237 625.952C571.237 620.912 570.191 616.973 568.101 614.136C566.01 611.261 562.706 609.824 558.189 609.824C555.165 609.824 552.663 610.477 550.685 611.784C548.743 613.053 547.306 614.901 546.373 617.328C545.439 619.717 544.973 622.592 544.973 625.952ZM606.419 646L593.259 610.944H593.035C593.11 611.691 593.166 612.643 593.203 613.8C593.278 614.957 593.334 616.227 593.371 617.608C593.408 618.952 593.427 620.333 593.427 621.752V646H588.779V606.016H596.227L608.547 638.776H608.771L621.315 606.016H628.707V646H623.723V621.416C623.723 620.109 623.742 618.821 623.779 617.552C623.816 616.245 623.872 615.032 623.947 613.912C624.022 612.755 624.078 611.784 624.115 611H623.891L610.563 646H606.419ZM642.944 646V606.016H672.96V646H667.976V610.44H647.984V646H642.944ZM712.353 646L707.537 633.624H691.689L686.929 646H681.833L697.457 605.848H701.993L717.561 646H712.353ZM701.545 617.048C701.433 616.749 701.246 616.208 700.985 615.424C700.723 614.64 700.462 613.837 700.201 613.016C699.977 612.157 699.79 611.504 699.641 611.056C699.454 611.803 699.249 612.568 699.025 613.352C698.838 614.099 698.633 614.789 698.409 615.424C698.222 616.059 698.054 616.6 697.905 617.048L693.369 629.144H706.025L701.545 617.048ZM756.966 646H751.926V627.352H731.43V646H726.39V606.016H731.43V622.928H751.926V606.016H756.966V646ZM771.314 606.016H776.018V627.968C776.018 628.901 775.999 629.928 775.962 631.048C775.962 632.131 775.943 633.213 775.906 634.296C775.869 635.379 775.813 636.349 775.738 637.208C775.701 638.029 775.663 638.664 775.626 639.112H775.85L797.858 606.016H803.458V646H798.754V624.272C798.754 623.264 798.773 622.181 798.81 621.024C798.847 619.829 798.885 618.691 798.922 617.608C798.997 616.488 799.053 615.499 799.09 614.64C799.127 613.781 799.165 613.147 799.202 612.736H798.978L776.914 646H771.314V606.016ZM829.642 629.424L819.282 646H813.402L824.602 628.528C823.184 628.043 821.84 627.371 820.57 626.512C819.338 625.653 818.33 624.477 817.546 622.984C816.762 621.491 816.37 619.568 816.37 617.216C816.37 613.595 817.621 610.832 820.122 608.928C822.624 606.987 826.357 606.016 831.322 606.016H842.522V646H837.482V629.424H829.642ZM831.434 610.328C829.306 610.328 827.514 610.571 826.058 611.056C824.602 611.541 823.482 612.307 822.698 613.352C821.952 614.397 821.578 615.76 821.578 617.44C821.578 619.904 822.4 621.808 824.042 623.152C825.685 624.496 828.224 625.168 831.658 625.168H837.482V610.328H831.434Z" fill="#585858"/>
<path d="M257 285.5L138 106L349.5 149L663 0L453.5 285.5H257Z" fill="url(#paint0_linear_154_66)"/>
<path d="M656.5 20.0001L670.5 0L849 286.5H828.5L656.5 20.0001Z" fill="url(#paint1_linear_154_66)"/>
<path d="M130.5 106L140 121.5L14 285.5H2L130.5 106Z" fill="url(#paint2_linear_154_66)"/>
<path d="M30.5 354.472L818 358.454L812.5 374.972H30.5V354.472Z" fill="url(#paint3_linear_154_66)"/>
<path d="M608 184H701C701 245.507 701 312.5 701 312.5H608V184Z" fill="url(#paint4_linear_154_66)"/>
<path d="M608 184H701C701 245.507 701 312.5 701 312.5H608V184Z" fill="url(#paint5_linear_154_66)"/>
<path d="M109.196 219.5H170.5C170.5 281.007 170.5 312.5 170.5 312.5H109.196V219.5Z" fill="url(#paint6_linear_154_66)"/>
<path d="M109.196 219.5H170.5C170.5 281.007 170.5 312.5 170.5 312.5H109.196V219.5Z" fill="url(#paint7_linear_154_66)"/>
<path d="M608 184H701C701 245.507 701 312.5 701 312.5H608V184Z" fill="url(#paint8_linear_154_66)"/>
<path d="M608 184H701C701 245.507 701 312.5 701 312.5H608V184Z" fill="url(#paint9_linear_154_66)"/>
<line x1="656.5" y1="171" x2="656.5" y2="321" stroke="white" stroke-width="5"/>
<line x1="730" y1="248.5" x2="580" y2="248.5" stroke="white" stroke-width="5"/>
<line x1="139.5" y1="187" x2="139.5" y2="337" stroke="white" stroke-width="5"/>
<line x1="213" y1="264.5" x2="63" y2="264.5" stroke="white" stroke-width="5"/>
<defs>
<linearGradient id="paint0_linear_154_66" x1="425.5" y1="-2.02864e-06" x2="425.5" y2="374.972" gradientUnits="userSpaceOnUse">
<stop stop-color="#BA3535"/>
<stop offset="1"/>
</linearGradient>
<linearGradient id="paint1_linear_154_66" x1="425.5" y1="-2.02864e-06" x2="425.5" y2="374.972" gradientUnits="userSpaceOnUse">
<stop stop-color="#BA3535"/>
<stop offset="1"/>
</linearGradient>
<linearGradient id="paint2_linear_154_66" x1="425.5" y1="-2.02864e-06" x2="425.5" y2="374.972" gradientUnits="userSpaceOnUse">
<stop stop-color="#BA3535"/>
<stop offset="1"/>
</linearGradient>
<linearGradient id="paint3_linear_154_66" x1="425.5" y1="-2.02864e-06" x2="425.5" y2="374.972" gradientUnits="userSpaceOnUse">
<stop stop-color="#BA3535"/>
<stop offset="1"/>
</linearGradient>
<linearGradient id="paint4_linear_154_66" x1="425.5" y1="-2.02864e-06" x2="425.5" y2="374.972" gradientUnits="userSpaceOnUse">
<stop stop-color="#BA3535"/>
<stop offset="1"/>
</linearGradient>
<linearGradient id="paint5_linear_154_66" x1="425.5" y1="-2.02864e-06" x2="425.5" y2="374.972" gradientUnits="userSpaceOnUse">
<stop stop-color="#BA3535"/>
<stop offset="1"/>
</linearGradient>
<linearGradient id="paint6_linear_154_66" x1="425.5" y1="-2.02864e-06" x2="425.5" y2="374.972" gradientUnits="userSpaceOnUse">
<stop stop-color="#BA3535"/>
<stop offset="1"/>
</linearGradient>
<linearGradient id="paint7_linear_154_66" x1="425.5" y1="-2.02864e-06" x2="425.5" y2="374.972" gradientUnits="userSpaceOnUse">
<stop stop-color="#BA3535"/>
<stop offset="1"/>
</linearGradient>
<linearGradient id="paint8_linear_154_66" x1="425.5" y1="-2.02864e-06" x2="425.5" y2="374.972" gradientUnits="userSpaceOnUse">
<stop stop-color="#BA3535"/>
<stop offset="1"/>
</linearGradient>
<linearGradient id="paint9_linear_154_66" x1="425.5" y1="-2.02864e-06" x2="425.5" y2="374.972" gradientUnits="userSpaceOnUse">
<stop stop-color="#BA3535"/>
<stop offset="1"/>
</linearGradient>
</defs>
</svg>
